<?xml version="1.0" standalone="no"?>
<!DOCTYPE svg PUBLIC "-//W3C//DTD SVG 20010904//EN"
 "http://www.w3.org/TR/2001/REC-SVG-20010904/DTD/svg10.dtd">
<svg version="1.0" xmlns="http://www.w3.org/2000/svg"
 width="700.000000pt" height="1280.000000pt" viewBox="0 0 700.000000 1280.000000"
 preserveAspectRatio="xMidYMid meet">
<metadata>
Created by potrace 1.15, written by Peter Selinger 2001-2017
</metadata>
<g transform="translate(0.000000,1280.000000) scale(0.100000,-0.100000)"
fill="#000000" stroke="none">
<path d="M1453 12780 c-133 -35 -235 -95 -472 -278 -75 -57 -161 -121 -191
-142 -60 -41 -301 -141 -415 -172 -38 -10 -92 -34 -120 -52 -27 -19 -86 -50
-130 -69 -106 -46 -112 -67 -24 -81 25 -5 49 -19 75 -47 64 -67 101 -81 244
-89 69 -5 172 -15 230 -24 58 -8 173 -25 255 -36 267 -37 408 -81 536 -166
189 -125 288 -352 259 -591 -26 -207 -123 -417 -368 -792 -222 -340 -465 -762
-737 -1276 -32 -60 -83 -152 -113 -203 -106 -182 -193 -388 -256 -608 -30
-105 -36 -116 -77 -153 -176 -154 -195 -510 -50 -901 21 -58 46 -145 56 -195
21 -113 79 -262 149 -385 31 -52 79 -140 108 -195 58 -110 111 -169 263 -295
50 -41 140 -121 200 -178 344 -327 609 -488 1014 -618 56 -18 86 -34 119 -66
110 -106 202 -300 247 -520 28 -140 48 -388 39 -488 -13 -151 -64 -367 -172
-735 -99 -334 -145 -502 -171 -625 -40 -187 -50 -226 -85 -325 -46 -130 -71
-280 -96 -573 -28 -336 -38 -423 -60 -543 -48 -257 -129 -403 -284 -513 -33
-24 -151 -92 -261 -151 -110 -59 -243 -136 -296 -171 -245 -161 -269 -288 -79
-424 141 -101 188 -114 300 -86 90 23 185 77 390 221 162 114 265 175 298 175
7 0 32 10 55 21 131 66 212 187 252 375 8 38 24 182 35 319 23 284 38 356 104
500 34 75 49 125 61 200 24 151 41 218 81 313 67 161 125 335 214 647 139 485
202 655 310 840 122 207 126 221 145 620 17 363 35 448 100 491 37 24 109 14
199 -29 102 -48 158 -88 237 -169 206 -207 308 -535 325 -1040 4 -120 19 -286
44 -483 77 -601 90 -757 90 -1114 0 -900 -179 -1402 -517 -1446 -38 -5 -75 -1
-139 15 -99 25 -167 22 -247 -12 -95 -41 -152 -147 -127 -239 26 -95 127 -151
266 -148 38 0 112 -7 164 -17 115 -21 365 -24 460 -5 289 57 498 222 597 473
l28 73 -3 1311 c-4 1420 2 1651 49 2012 23 174 -19 399 -136 722 -119 328
-164 467 -185 570 l-21 101 46 87 c25 48 55 98 68 112 56 63 133 102 255 130
134 31 372 -37 663 -190 66 -34 121 -72 172 -120 69 -64 82 -72 149 -90 41
-11 119 -37 174 -59 163 -66 255 -84 429 -85 129 -1 160 2 220 21 188 60 351
218 472 456 74 147 88 220 87 437 -1 164 -5 208 -37 388 -39 226 -52 257 -155
384 -95 118 -230 205 -383 248 -39 10 -76 24 -83 29 -11 9 -93 3 -232 -19
-196 -31 -494 11 -593 84 -60 45 -319 289 -332 313 -7 14 -26 31 -42 40 -16 8
-78 54 -139 103 -458 369 -978 629 -1453 724 -398 79 -671 104 -957 86 -95 -6
-217 -17 -270 -25 -54 -8 -124 -15 -156 -15 -110 0 -247 -50 -393 -145 -40
-26 -164 -116 -276 -201 -113 -85 -219 -162 -236 -172 -24 -12 -56 -17 -125
-17 -92 0 -94 1 -118 30 -36 44 -38 67 -19 168 35 182 73 275 299 727 111 224
183 382 205 450 36 112 86 208 298 580 160 279 316 592 371 745 43 118 85 276
103 390 17 104 24 922 9 1060 -33 307 -118 521 -274 693 -109 118 -327 171
-513 122z"/>
</g>
</svg>
